<mxfile host="app.diagrams.net" modified="2023-02-22T16:35:54.332Z" agent="5.0 (Windows NT 10.0; Win64; x64) AppleWebKit/537.36 (KHTML, like Gecko) Chrome/110.0.0.0 Safari/537.36" etag="XC0KAoFXOez0GKI3kFXd" version="20.8.22" type="github">
  <diagram name="Page-1" id="6_34JsctUVSMEbz2jpGI">
    <mxGraphModel dx="1434" dy="796" grid="1" gridSize="10" guides="1" tooltips="1" connect="1" arrows="1" fold="1" page="1" pageScale="1" pageWidth="827" pageHeight="1169" math="0" shadow="0">
      <root>
        <mxCell id="0" />
        <mxCell id="1" parent="0" />
        <mxCell id="MBwlHe1rZmq2VOk5U8e6-13" style="edgeStyle=orthogonalEdgeStyle;rounded=0;orthogonalLoop=1;jettySize=auto;html=1;exitX=0.5;exitY=1;exitDx=0;exitDy=0;entryX=0.5;entryY=0;entryDx=0;entryDy=0;endArrow=ERzeroToMany;endFill=0;" edge="1" parent="1" source="MBwlHe1rZmq2VOk5U8e6-1" target="MBwlHe1rZmq2VOk5U8e6-2">
          <mxGeometry relative="1" as="geometry" />
        </mxCell>
        <mxCell id="MBwlHe1rZmq2VOk5U8e6-1" value="Customers" style="rounded=1;whiteSpace=wrap;html=1;" vertex="1" parent="1">
          <mxGeometry x="270" y="210" width="120" height="60" as="geometry" />
        </mxCell>
        <mxCell id="MBwlHe1rZmq2VOk5U8e6-14" style="edgeStyle=orthogonalEdgeStyle;rounded=0;orthogonalLoop=1;jettySize=auto;html=1;exitX=0.5;exitY=1;exitDx=0;exitDy=0;entryX=0.5;entryY=0;entryDx=0;entryDy=0;" edge="1" parent="1" source="MBwlHe1rZmq2VOk5U8e6-2" target="MBwlHe1rZmq2VOk5U8e6-8">
          <mxGeometry relative="1" as="geometry" />
        </mxCell>
        <mxCell id="MBwlHe1rZmq2VOk5U8e6-2" value="Vehicles" style="rounded=1;whiteSpace=wrap;html=1;" vertex="1" parent="1">
          <mxGeometry x="270" y="330" width="120" height="60" as="geometry" />
        </mxCell>
        <mxCell id="MBwlHe1rZmq2VOk5U8e6-11" style="edgeStyle=orthogonalEdgeStyle;rounded=0;orthogonalLoop=1;jettySize=auto;html=1;exitX=0;exitY=1;exitDx=0;exitDy=0;entryX=0.5;entryY=0;entryDx=0;entryDy=0;endArrow=ERzeroToMany;endFill=0;" edge="1" parent="1" source="MBwlHe1rZmq2VOk5U8e6-3" target="MBwlHe1rZmq2VOk5U8e6-1">
          <mxGeometry relative="1" as="geometry" />
        </mxCell>
        <mxCell id="MBwlHe1rZmq2VOk5U8e6-12" style="edgeStyle=orthogonalEdgeStyle;rounded=0;orthogonalLoop=1;jettySize=auto;html=1;exitX=1;exitY=1;exitDx=0;exitDy=0;entryX=0.5;entryY=0;entryDx=0;entryDy=0;endArrow=ERoneToMany;endFill=0;" edge="1" parent="1" source="MBwlHe1rZmq2VOk5U8e6-3" target="MBwlHe1rZmq2VOk5U8e6-4">
          <mxGeometry relative="1" as="geometry" />
        </mxCell>
        <mxCell id="MBwlHe1rZmq2VOk5U8e6-3" value="Garage" style="rounded=1;whiteSpace=wrap;html=1;" vertex="1" parent="1">
          <mxGeometry x="350" y="90" width="120" height="60" as="geometry" />
        </mxCell>
        <mxCell id="MBwlHe1rZmq2VOk5U8e6-19" style="edgeStyle=orthogonalEdgeStyle;rounded=0;orthogonalLoop=1;jettySize=auto;html=1;exitX=0.5;exitY=1;exitDx=0;exitDy=0;entryX=0.5;entryY=0;entryDx=0;entryDy=0;" edge="1" parent="1" source="MBwlHe1rZmq2VOk5U8e6-4" target="MBwlHe1rZmq2VOk5U8e6-18">
          <mxGeometry relative="1" as="geometry" />
        </mxCell>
        <mxCell id="MBwlHe1rZmq2VOk5U8e6-4" value="Mechanics" style="rounded=1;whiteSpace=wrap;html=1;" vertex="1" parent="1">
          <mxGeometry x="450" y="210" width="120" height="60" as="geometry" />
        </mxCell>
        <mxCell id="MBwlHe1rZmq2VOk5U8e6-22" style="edgeStyle=orthogonalEdgeStyle;rounded=0;orthogonalLoop=1;jettySize=auto;html=1;exitX=0.25;exitY=1;exitDx=0;exitDy=0;entryX=0.5;entryY=0;entryDx=0;entryDy=0;endArrow=ERzeroToMany;endFill=0;" edge="1" parent="1" source="MBwlHe1rZmq2VOk5U8e6-5" target="MBwlHe1rZmq2VOk5U8e6-20">
          <mxGeometry relative="1" as="geometry" />
        </mxCell>
        <mxCell id="MBwlHe1rZmq2VOk5U8e6-23" style="edgeStyle=orthogonalEdgeStyle;rounded=0;orthogonalLoop=1;jettySize=auto;html=1;exitX=0.75;exitY=1;exitDx=0;exitDy=0;entryX=0.5;entryY=0;entryDx=0;entryDy=0;endArrow=ERzeroToMany;endFill=0;" edge="1" parent="1" source="MBwlHe1rZmq2VOk5U8e6-5" target="MBwlHe1rZmq2VOk5U8e6-21">
          <mxGeometry relative="1" as="geometry" />
        </mxCell>
        <mxCell id="MBwlHe1rZmq2VOk5U8e6-5" value="MOT History" style="rounded=1;whiteSpace=wrap;html=1;" vertex="1" parent="1">
          <mxGeometry x="270" y="610" width="120" height="60" as="geometry" />
        </mxCell>
        <mxCell id="MBwlHe1rZmq2VOk5U8e6-15" style="edgeStyle=orthogonalEdgeStyle;rounded=0;orthogonalLoop=1;jettySize=auto;html=1;exitX=0.5;exitY=1;exitDx=0;exitDy=0;entryX=0.5;entryY=0;entryDx=0;entryDy=0;" edge="1" parent="1" source="MBwlHe1rZmq2VOk5U8e6-7" target="MBwlHe1rZmq2VOk5U8e6-5">
          <mxGeometry relative="1" as="geometry" />
        </mxCell>
        <mxCell id="MBwlHe1rZmq2VOk5U8e6-7" value="Manufacturer" style="rhombus;whiteSpace=wrap;html=1;" vertex="1" parent="1">
          <mxGeometry x="285" y="505" width="90" height="80" as="geometry" />
        </mxCell>
        <mxCell id="MBwlHe1rZmq2VOk5U8e6-16" style="edgeStyle=orthogonalEdgeStyle;rounded=0;orthogonalLoop=1;jettySize=auto;html=1;exitX=0.5;exitY=1;exitDx=0;exitDy=0;entryX=0.5;entryY=0;entryDx=0;entryDy=0;" edge="1" parent="1" source="MBwlHe1rZmq2VOk5U8e6-8" target="MBwlHe1rZmq2VOk5U8e6-7">
          <mxGeometry relative="1" as="geometry" />
        </mxCell>
        <mxCell id="MBwlHe1rZmq2VOk5U8e6-8" value="Model" style="rhombus;whiteSpace=wrap;html=1;" vertex="1" parent="1">
          <mxGeometry x="285" y="410" width="90" height="80" as="geometry" />
        </mxCell>
        <mxCell id="MBwlHe1rZmq2VOk5U8e6-18" value="Mechanic" style="rhombus;whiteSpace=wrap;html=1;" vertex="1" parent="1">
          <mxGeometry x="470" y="290" width="80" height="80" as="geometry" />
        </mxCell>
        <mxCell id="MBwlHe1rZmq2VOk5U8e6-27" style="edgeStyle=orthogonalEdgeStyle;rounded=0;orthogonalLoop=1;jettySize=auto;html=1;exitX=0.5;exitY=1;exitDx=0;exitDy=0;entryX=0.5;entryY=0;entryDx=0;entryDy=0;endArrow=ERzeroToMany;endFill=0;" edge="1" parent="1" source="MBwlHe1rZmq2VOk5U8e6-20" target="MBwlHe1rZmq2VOk5U8e6-26">
          <mxGeometry relative="1" as="geometry" />
        </mxCell>
        <mxCell id="MBwlHe1rZmq2VOk5U8e6-20" value="Passed" style="rhombus;whiteSpace=wrap;html=1;" vertex="1" parent="1">
          <mxGeometry x="240" y="690" width="80" height="80" as="geometry" />
        </mxCell>
        <mxCell id="MBwlHe1rZmq2VOk5U8e6-25" style="edgeStyle=orthogonalEdgeStyle;rounded=0;orthogonalLoop=1;jettySize=auto;html=1;exitX=0.5;exitY=1;exitDx=0;exitDy=0;entryX=0.5;entryY=0;entryDx=0;entryDy=0;endArrow=ERmandOne;endFill=0;" edge="1" parent="1" source="MBwlHe1rZmq2VOk5U8e6-21" target="MBwlHe1rZmq2VOk5U8e6-24">
          <mxGeometry relative="1" as="geometry" />
        </mxCell>
        <mxCell id="MBwlHe1rZmq2VOk5U8e6-21" value="Failed" style="rhombus;whiteSpace=wrap;html=1;" vertex="1" parent="1">
          <mxGeometry x="340" y="690" width="80" height="80" as="geometry" />
        </mxCell>
        <mxCell id="MBwlHe1rZmq2VOk5U8e6-24" value="Reason For Failure" style="rhombus;whiteSpace=wrap;html=1;" vertex="1" parent="1">
          <mxGeometry x="340" y="800" width="80" height="80" as="geometry" />
        </mxCell>
        <mxCell id="MBwlHe1rZmq2VOk5U8e6-26" value="Advisories" style="rhombus;whiteSpace=wrap;html=1;" vertex="1" parent="1">
          <mxGeometry x="240" y="800" width="80" height="80" as="geometry" />
        </mxCell>
      </root>
    </mxGraphModel>
  </diagram>
</mxfile>
